Khula-ExtraBold.ufo
<glyph name="exclam.deva" format="1">
  <advance width="895"/>
  <unicode hex="0021"/>
  <outline>
    <contour>
      <point x="596" y="464" type="line"/>
      <point x="299" y="464" type="line"/>
      <point x="253" y="1316" type="line"/>
      <point x="642" y="1316" type="line"/>
    </contour>
    <contour>
      <point x="256" y="149" type="curve" smooth="yes"/>
      <point x="256" y="258"/>
      <point x="323" y="322"/>
      <point x="446" y="322" type="curve" smooth="yes"/>
      <point x="569" y="322"/>
      <point x="633" y="258"/>
      <point x="633" y="149" type="curve" smooth="yes"/>
      <point x="633" y="41"/>
      <point x="563" y="-23"/>
      <point x="446" y="-23" type="curve" smooth="yes"/>
      <point x="327" y="-23"/>
      <point x="256" y="41"/>
    </contour>
  </outline>
</glyph>
<glyph name="ttadeva" format="1">
  <advance width="1228"/>
  <unicode hex="091F"/>
  <outline>
    <contour>
      <point x="662" y="1093" type="line"/>
      <point x="1028" y="1093" type="line"/>
      <point x="1028" y="644" type="line"/>
      <point x="671" y="644" type="line" smooth="yes"/>
      <point x="500" y="644"/>
      <point x="423" y="558"/>
      <point x="423" y="457" type="curve" smooth="yes"/>
      <point x="423" y="353"/>
      <point x="507" y="279"/>
      <point x="668" y="279" type="curve" smooth="yes"/>
      <point x="781" y="279"/>
      <point x="877" y="300"/>
      <point x="1028" y="355" type="curve"/>
      <point x="1095" y="59" type="line"/>
      <point x="963" y="18"/>
      <point x="865" y="2"/>
      <point x="714" y="2" type="curve" smooth="yes"/>
      <point x="310" y="2"/>
      <point x="63" y="229"/>
      <point x="63" y="501" type="curve" smooth="yes"/>
      <point x="63" y="760"/>
      <point x="249" y="909"/>
      <point x="568" y="909" type="curve" smooth="yes"/>
      <point x="702" y="909" type="line"/>
      <point x="662" y="866" type="line"/>
    </contour>
    <contour>
      <point x="1258" y="1056" type="line"/>
      <point x="-30" y="1056" type="line"/>
      <point x="-30" y="1294" type="line"/>
      <point x="1258" y="1294" type="line"/>
    </contour>
    <contour>
      <point x="527" y="20" type="move" name="btm"/>
    </contour>
    <contour>
      <point x="612.0" y="1294.0" type="move" name="top"/>
    </contour>
  </outline>
</glyph>
<glyph name="dadeva" format="1">
  <advance width="1262"/>
  <unicode hex="0926"/>
  <outline>
    <contour>
      <point x="-30" y="1056" type="curve"/>
      <point x="-30" y="1294" type="line"/>
      <point x="1292" y="1294" type="line"/>
      <point x="1292" y="1056" type="line"/>
      <point x="1292" y="1056"/>
      <point x="-30" y="1056"/>
    </contour>
    <contour>
      <point x="673" y="163" type="line"/>
      <point x="950" y="247" type="line"/>
      <point x="1185" y="-192" type="line"/>
      <point x="921" y="-303" type="line"/>
    </contour>
    <contour>
      <point x="1167" y="164"/>
      <point x="1003" y="43"/>
      <point x="675" y="43" type="curve" smooth="yes"/>
      <point x="318" y="43"/>
      <point x="63" y="233"/>
      <point x="63" y="508" type="curve" smooth="yes"/>
      <point x="63" y="737"/>
      <point x="217" y="909"/>
      <point x="580" y="909" type="curve" smooth="yes"/>
      <point x="721" y="909" type="line"/>
      <point x="649" y="853" type="line"/>
      <point x="649" y="1086" type="line"/>
      <point x="1016" y="1086" type="line"/>
      <point x="1016" y="656" type="line"/>
      <point x="679" y="656" type="line" smooth="yes"/>
      <point x="483" y="656"/>
      <point x="400" y="580"/>
      <point x="400" y="465" type="curve" smooth="yes"/>
      <point x="400" y="363"/>
      <point x="492" y="295"/>
      <point x="609" y="295" type="curve" smooth="yes"/>
      <point x="704" y="295"/>
      <point x="760" y="298"/>
      <point x="869" y="321" type="curve"/>
      <point x="655" y="202" type="line"/>
      <point x="626" y="257"/>
      <point x="613" y="313"/>
      <point x="613" y="371" type="curve" smooth="yes"/>
      <point x="613" y="440"/>
      <point x="655" y="518"/>
      <point x="807" y="518" type="curve" smooth="yes"/>
      <point x="1011" y="518"/>
      <point x="1167" y="415"/>
      <point x="1167" y="290" type="curve" smooth="yes"/>
    </contour>
    <contour>
      <point x="864" y="-195" type="move" name="btm"/>
    </contour>
    <contour>
      <point x="649" y="1294" type="move" name="top"/>
    </contour>
  </outline>
</glyph>
<glyph name="vadeva" format="1">
  <advance width="1305"/>
  <unicode hex="0935"/>
  <outline>
    <contour>
      <point x="1335" y="1056" type="line"/>
      <point x="-30" y="1056" type="line"/>
      <point x="-30" y="1294" type="line"/>
      <point x="1335" y="1294" type="line"/>
    </contour>
    <contour>
      <point x="794" y="579" type="curve"/>
      <point x="794" y="201" type="line"/>
      <point x="729" y="168"/>
      <point x="656" y="151"/>
      <point x="563" y="151" type="curve" smooth="yes"/>
      <point x="247" y="151"/>
      <point x="53" y="371"/>
      <point x="53" y="613" type="curve" smooth="yes"/>
      <point x="53" y="810"/>
      <point x="212" y="952"/>
      <point x="462" y="952" type="curve" smooth="yes"/>
      <point x="620" y="952"/>
      <point x="748" y="926"/>
      <point x="852" y="884" type="curve"/>
      <point x="852" y="622" type="line"/>
      <point x="737" y="668"/>
      <point x="660" y="688"/>
      <point x="562" y="688" type="curve" smooth="yes"/>
      <point x="449" y="688"/>
      <point x="392" y="625"/>
      <point x="392" y="551" type="curve" smooth="yes"/>
      <point x="392" y="480"/>
      <point x="444" y="429"/>
      <point x="514" y="429" type="curve" smooth="yes"/>
      <point x="619" y="429"/>
      <point x="703" y="476"/>
    </contour>
    <contour>
      <point x="755" y="1096" type="line"/>
      <point x="1121" y="1096" type="line"/>
      <point x="1121" y="0" type="line"/>
      <point x="755" y="0" type="line"/>
    </contour>
    <contour>
      <point x="755" y="1294" type="move" name="top"/>
    </contour>
  </outline>
</glyph>
<glyph name="ecandravowelsigndeva" format="1">
  <advance width="0"/>
  <unicode hex="0945"/>
  <outline>
    <contour>
      <point x="-159" y="1545" type="line"/>
      <point x="-288" y="1418"/>
      <point x="-445" y="1358"/>
      <point x="-642" y="1358" type="curve" smooth="yes"/>
      <point x="-834" y="1358"/>
      <point x="-988" y="1419"/>
      <point x="-1142" y="1544" type="curve"/>
      <point x="-1067" y="1780" type="line"/>
      <point x="-938" y="1676"/>
      <point x="-813" y="1613"/>
      <point x="-640" y="1613" type="curve" smooth="yes"/>
      <point x="-485" y="1613"/>
      <point x="-361" y="1678"/>
      <point x="-247" y="1777" type="curve"/>
    </contour>
    <contour>
      <point x="49.0" y="8.0" type="move" name="x14"/>
    </contour>
    <contour>
      <point x="-552" y="1294" type="move" name="_top"/>
    </contour>
  </outline>
</glyph>
<glyph name="prishthaevowelsign" format="1">
  <advance width="683"/>
  <unicode hex="094E"/>
  <outline>
    <contour>
      <point x="133" y="1096" type="line"/>
      <point x="499" y="1096" type="line"/>
      <point x="499" y="0" type="line"/>
      <point x="133" y="0" type="line"/>
    </contour>
    <contour>
      <point x="713" y="1056" type="line"/>
      <point x="133" y="1056" type="line"/>
      <point x="133" y="1294" type="line"/>
      <point x="713" y="1294" type="line"/>
    </contour>
  </outline>
</glyph>
<glyph name="llvocalicdeva" format="1">
  <advance width="1696.0"/>
  <unicode hex="0961"/>
  <outline>
    <contour>
      <point x="1031" y="632" type="curve"/>
      <point x="817" y="455" type="line"/>
      <point x="729" y="558"/>
      <point x="652" y="606"/>
      <point x="559" y="606" type="curve" smooth="yes"/>
      <point x="444" y="606"/>
      <point x="379" y="521"/>
      <point x="379" y="427" type="curve" smooth="yes"/>
      <point x="379" y="336"/>
      <point x="436" y="251"/>
      <point x="585" y="108" type="curve"/>
      <point x="329" y="-26" type="line"/>
      <point x="151" y="134"/>
      <point x="46" y="317"/>
      <point x="46" y="505" type="curve" smooth="yes"/>
      <point x="46" y="739"/>
      <point x="212" y="910"/>
      <point x="450" y="910" type="curve" smooth="yes"/>
      <point x="674" y="910"/>
      <point x="826" y="831"/>
    </contour>
    <contour>
      <point x="1756" y="-422" type="line"/>
      <point x="1685" y="-445"/>
      <point x="1580" y="-466"/>
      <point x="1495" y="-466" type="curve" smooth="yes"/>
      <point x="1242" y="-466"/>
      <point x="1150" y="-340"/>
      <point x="1150" y="-218" type="curve" smooth="yes"/>
      <point x="1150" y="-63"/>
      <point x="1312" y="42"/>
      <point x="1558" y="42" type="curve"/>
      <point x="1610" y="-93" type="line"/>
      <point x="1496" y="-93"/>
      <point x="1433" y="-146"/>
      <point x="1433" y="-203" type="curve" smooth="yes"/>
      <point x="1433" y="-244"/>
      <point x="1456" y="-278"/>
      <point x="1535" y="-278" type="curve" smooth="yes"/>
      <point x="1592" y="-278"/>
      <point x="1635" y="-269"/>
      <point x="1719" y="-239" type="curve"/>
    </contour>
    <contour>
      <point x="994" y="1096" type="line"/>
      <point x="1360" y="1096" type="line"/>
      <point x="1360" y="813" type="line"/>
      <point x="994" y="813" type="line"/>
    </contour>
    <contour>
      <point x="-30" y="1056" type="curve"/>
      <point x="-30" y="1294" type="line"/>
      <point x="1726" y="1294" type="line"/>
      <point x="1726" y="1056" type="line"/>
      <point x="1726" y="1056"/>
      <point x="-30" y="1056"/>
    </contour>
    <contour>
      <point x="1588" y="480" type="curve" smooth="yes"/>
      <point x="1588" y="388"/>
      <point x="1560" y="297"/>
      <point x="1523" y="217" type="curve"/>
      <point x="1490" y="217" type="line" smooth="yes"/>
      <point x="1385" y="217"/>
      <point x="1346" y="174"/>
      <point x="1346" y="137" type="curve" smooth="yes"/>
      <point x="1346" y="96"/>
      <point x="1376" y="62"/>
      <point x="1445" y="62" type="curve" smooth="yes"/>
      <point x="1502" y="62"/>
      <point x="1539" y="67"/>
      <point x="1639" y="94" type="curve"/>
      <point x="1679" y="-108" type="line"/>
      <point x="1578" y="-131"/>
      <point x="1520" y="-135"/>
      <point x="1435" y="-135" type="curve" smooth="yes"/>
      <point x="1172" y="-135"/>
      <point x="1021" y="-10"/>
      <point x="1021" y="152" type="curve" smooth="yes"/>
      <point x="1021" y="283"/>
      <point x="1165" y="399"/>
      <point x="1345" y="399" type="curve" smooth="yes"/>
      <point x="1388" y="399"/>
      <point x="1434" y="393"/>
      <point x="1468" y="385" type="curve"/>
      <point x="1192" y="285" type="line"/>
      <point x="1233" y="345"/>
      <point x="1263" y="411"/>
      <point x="1263" y="493" type="curve" smooth="yes"/>
      <point x="1263" y="558"/>
      <point x="1219" y="591"/>
      <point x="1160" y="591" type="curve" smooth="yes"/>
      <point x="1067" y="591"/>
      <point x="966" y="473"/>
      <point x="918" y="236" type="curve" smooth="yes"/>
      <point x="918" y="236"/>
      <point x="607" y="345"/>
      <point x="607" y="345" type="curve" smooth="yes"/>
      <point x="673" y="639"/>
      <point x="823" y="893"/>
      <point x="1137" y="893" type="curve" smooth="yes"/>
      <point x="1411" y="893"/>
      <point x="1588" y="714"/>
    </contour>
  </outline>
</glyph>
<glyph name="zerodeva" format="1">
  <advance width="1255"/>
  <unicode hex="0966"/>
  <outline>
    <contour>
      <point x="619" y="1148" type="curve" smooth="yes"/>
      <point x="969" y="1148"/>
      <point x="1182" y="918"/>
      <point x="1182" y="618" type="curve" smooth="yes"/>
      <point x="1182" y="357"/>
      <point x="1001" y="123"/>
      <point x="646" y="123" type="curve" smooth="yes"/>
      <point x="300" y="123"/>
      <point x="75" y="365"/>
      <point x="75" y="654" type="curve" smooth="yes"/>
      <point x="75" y="913"/>
      <point x="278" y="1148"/>
    </contour>
    <contour>
      <point x="617" y="425" type="curve" smooth="yes"/>
      <point x="740" y="425"/>
      <point x="837" y="526"/>
      <point x="837" y="650" type="curve" smooth="yes"/>
      <point x="837" y="762"/>
      <point x="770" y="854"/>
      <point x="643" y="854" type="curve" smooth="yes"/>
      <point x="511" y="854"/>
      <point x="429" y="740"/>
      <point x="429" y="619" type="curve" smooth="yes"/>
      <point x="429" y="501"/>
      <point x="506" y="425"/>
    </contour>
  </outline>
</glyph>
<glyph name="twodeva" format="1">
  <advance width="1072"/>
  <unicode hex="0968"/>
  <outline>
    <contour>
      <point x="323" y="452" type="line"/>
      <point x="587" y="560" type="line"/>
      <point x="958" y="-47" type="line"/>
      <point x="698" y="-172" type="line"/>
    </contour>
    <contour>
      <point x="354" y="329" type="curve" smooth="yes"/>
      <point x="183" y="329"/>
      <point x="112" y="390"/>
      <point x="112" y="474" type="curve" smooth="yes"/>
      <point x="112" y="596"/>
      <point x="240" y="770"/>
      <point x="370" y="770" type="curve" smooth="yes"/>
      <point x="457" y="770"/>
      <point x="508" y="721"/>
      <point x="568" y="599" type="curve"/>
      <point x="337" y="598" type="line"/>
      <point x="576" y="651"/>
      <point x="665" y="760"/>
      <point x="661" y="877" type="curve" smooth="yes"/>
      <point x="658" y="974"/>
      <point x="579" y="1043"/>
      <point x="456" y="1043" type="curve" smooth="yes"/>
      <point x="342" y="1043"/>
      <point x="255" y="1026"/>
      <point x="159" y="985" type="curve"/>
      <point x="66" y="1259" type="line"/>
      <point x="188" y="1293"/>
      <point x="303" y="1314"/>
      <point x="469" y="1313" type="curve" smooth="yes"/>
      <point x="804" y="1311"/>
      <point x="994" y="1126"/>
      <point x="994" y="871" type="curve" smooth="yes"/>
      <point x="994" y="558"/>
      <point x="659" y="329"/>
    </contour>
  </outline>
</glyph>
<glyph name="fourdeva" format="1">
  <advance width="1229"/>
  <unicode hex="096A"/>
  <outline>
    <contour>
      <point x="-8" y="1126" type="line"/>
      <point x="221" y="1343" type="line"/>
      <point x="738" y="913" type="line" smooth="yes"/>
      <point x="1020" y="678"/>
      <point x="1098" y="533"/>
      <point x="1098" y="370" type="curve" smooth="yes"/>
      <point x="1098" y="189"/>
      <point x="936" y="13"/>
      <point x="650" y="13" type="curve" smooth="yes"/>
      <point x="374" y="13"/>
      <point x="180" y="186"/>
      <point x="180" y="398" type="curve" smooth="yes"/>
      <point x="180" y="532"/>
      <point x="239" y="670"/>
      <point x="485" y="887" type="curve" smooth="yes"/>
      <point x="1009" y="1349" type="line"/>
      <point x="1262" y="1129" type="line"/>
      <point x="715" y="646" type="line" smooth="yes"/>
      <point x="541" y="492"/>
      <point x="515" y="428"/>
      <point x="515" y="367" type="curve" smooth="yes"/>
      <point x="515" y="302"/>
      <point x="558" y="266"/>
      <point x="626" y="266" type="curve" smooth="yes"/>
      <point x="704" y="266"/>
      <point x="759" y="316"/>
      <point x="759" y="396" type="curve" smooth="yes"/>
      <point x="759" y="464"/>
      <point x="707" y="537"/>
      <point x="555" y="662" type="curve" smooth="yes"/>
    </contour>
  </outline>
</glyph>
<glyph name="fivedeva" format="1">
  <advance width="1287"/>
  <unicode hex="096B"/>
  <outline>
    <contour>
      <point x="418" y="645" type="curve" smooth="yes"/>
      <point x="418" y="525"/>
      <point x="492" y="453"/>
      <point x="612" y="453" type="curve" smooth="yes"/>
      <point x="698" y="453"/>
      <point x="787" y="493"/>
      <point x="900" y="597" type="curve"/>
      <point x="748" y="435" type="line"/>
      <point x="682" y="528"/>
      <point x="667" y="580"/>
      <point x="667" y="636" type="curve" smooth="yes"/>
      <point x="667" y="698"/>
      <point x="723" y="762"/>
      <point x="867" y="762" type="curve" smooth="yes"/>
      <point x="1058" y="762"/>
      <point x="1185" y="681"/>
      <point x="1185" y="582" type="curve" smooth="yes"/>
      <point x="1185" y="388"/>
      <point x="934" y="208"/>
      <point x="632" y="208" type="curve" smooth="yes"/>
      <point x="305" y="208"/>
      <point x="95" y="428"/>
      <point x="95" y="687" type="curve" smooth="yes"/>
      <point x="95" y="909"/>
      <point x="196" y="1136"/>
      <point x="443" y="1327" type="curve"/>
      <point x="748" y="1170" type="line"/>
      <point x="484" y="964"/>
      <point x="418" y="784"/>
    </contour>
    <contour>
      <point x="749" y="449" type="line"/>
      <point x="1004" y="556" type="line"/>
      <point x="1318" y="-81" type="line"/>
      <point x="1066" y="-188" type="line"/>
    </contour>
  </outline>
</glyph>
<glyph name="sevendeva" format="1">
  <advance width="1345"/>
  <unicode hex="096D"/>
  <outline>
    <contour>
      <point x="1076" y="477" type="curve"/>
      <point x="1075" y="476"/>
      <point x="990" y="257"/>
      <point x="990" y="257" type="curve"/>
      <point x="646" y="344"/>
      <point x="472" y="504"/>
      <point x="472" y="733" type="curve" smooth="yes"/>
      <point x="472" y="911"/>
      <point x="585" y="1058"/>
      <point x="817" y="1058" type="curve" smooth="yes"/>
      <point x="1071" y="1058"/>
      <point x="1285" y="864"/>
      <point x="1285" y="584" type="curve" smooth="yes"/>
      <point x="1285" y="259"/>
      <point x="1078" y="14"/>
      <point x="715" y="14" type="curve" smooth="yes"/>
      <point x="368" y="14"/>
      <point x="76" y="278"/>
      <point x="76" y="739" type="curve" smooth="yes"/>
      <point x="76" y="930"/>
      <point x="117" y="1135"/>
      <point x="181" y="1294" type="curve"/>
      <point x="509" y="1199" type="line"/>
      <point x="430" y="1016"/>
      <point x="392" y="821"/>
      <point x="392" y="647" type="curve" smooth="yes"/>
      <point x="392" y="433"/>
      <point x="511" y="299"/>
      <point x="691" y="299" type="curve" smooth="yes"/>
      <point x="857" y="299"/>
      <point x="966" y="467"/>
      <point x="966" y="630" type="curve" smooth="yes"/>
      <point x="966" y="710"/>
      <point x="916" y="766"/>
      <point x="865" y="766" type="curve" smooth="yes"/>
      <point x="817" y="766"/>
      <point x="789" y="732"/>
      <point x="789" y="679" type="curve" smooth="yes"/>
      <point x="789" y="594"/>
      <point x="855" y="511"/>
    </contour>
  </outline>
</glyph>
<glyph name="eightdeva" format="1">
  <advance width="1133"/>
  <unicode hex="096E"/>
  <outline>
    <contour>
      <point x="640" y="1320" type="line"/>
      <point x="944" y="1082" type="line"/>
      <point x="536" y="618" type="line" smooth="yes"/>
      <point x="465" y="537"/>
      <point x="448" y="491"/>
      <point x="448" y="439" type="curve" smooth="yes"/>
      <point x="448" y="380"/>
      <point x="504" y="328"/>
      <point x="577" y="328" type="curve" smooth="yes"/>
      <point x="677" y="328"/>
      <point x="787" y="374"/>
      <point x="972" y="514" type="curve"/>
      <point x="1165" y="196" type="line"/>
      <point x="977" y="60"/>
      <point x="833" y="15"/>
      <point x="631" y="15" type="curve" smooth="yes"/>
      <point x="297" y="15"/>
      <point x="72" y="223"/>
      <point x="72" y="485" type="curve" smooth="yes"/>
      <point x="72" y="604"/>
      <point x="107" y="714"/>
      <point x="219" y="842" type="curve" smooth="yes"/>
    </contour>
  </outline>
</glyph>
<glyph name="ellipsis.deva" format="1">
  <advance width="1662"/>
  <unicode hex="2026"/>
  <outline>
    <contour>
      <point x="90" y="149" type="curve" smooth="yes"/>
      <point x="90" y="260"/>
      <point x="157" y="322"/>
      <point x="282" y="322" type="curve" smooth="yes"/>
      <point x="401" y="322"/>
      <point x="467" y="260"/>
      <point x="467" y="149" type="curve" smooth="yes"/>
      <point x="467" y="41"/>
      <point x="397" y="-23"/>
      <point x="282" y="-23" type="curve" smooth="yes"/>
      <point x="163" y="-23"/>
      <point x="90" y="40"/>
    </contour>
    <contour>
      <point x="623" y="149" type="curve" smooth="yes"/>
      <point x="623" y="260"/>
      <point x="690" y="322"/>
      <point x="815" y="322" type="curve" smooth="yes"/>
      <point x="934" y="322"/>
      <point x="999" y="260"/>
      <point x="999" y="149" type="curve" smooth="yes"/>
      <point x="999" y="41"/>
      <point x="930" y="-23"/>
      <point x="815" y="-23" type="curve" smooth="yes"/>
      <point x="696" y="-23"/>
      <point x="623" y="40"/>
    </contour>
    <contour>
      <point x="1156" y="149" type="curve" smooth="yes"/>
      <point x="1156" y="260"/>
      <point x="1223" y="322"/>
      <point x="1348" y="322" type="curve" smooth="yes"/>
      <point x="1467" y="322"/>
      <point x="1532" y="260"/>
      <point x="1532" y="149" type="curve" smooth="yes"/>
      <point x="1532" y="41"/>
      <point x="1463" y="-23"/>
      <point x="1348" y="-23" type="curve" smooth="yes"/>
      <point x="1229" y="-23"/>
      <point x="1156" y="40"/>
    </contour>
  </outline>
</glyph>
<glyph name=".notdef" format="1">
  <advance width="1141"/>
  <outline>
    <contour>
      <point x="100" y="1294" type="line"/>
      <point x="1041" y="1294" type="line"/>
      <point x="1041" y="0" type="line"/>
      <point x="100" y="0" type="line"/>
    </contour>
    <contour>
      <point x="745" y="258" type="line"/>
      <point x="745" y="1056" type="line"/>
      <point x="406" y="1056" type="line"/>
      <point x="406" y="258" type="line"/>
    </contour>
  </outline>
</glyph>
<glyph name="caprehalfdeva" format="1">
  <advance width="924"/>
  <outline>
    <contour>
      <point x="20" y="622" type="curve"/>
      <point x="20" y="909" type="line"/>
      <point x="775" y="909" type="line"/>
      <point x="775" y="622" type="line"/>
      <point x="775" y="622"/>
      <point x="20" y="622"/>
    </contour>
    <contour>
      <point x="1114" y="668" type="curve"/>
      <point x="1289" y="414" type="line"/>
      <point x="1113" y="240"/>
      <point x="933" y="129"/>
      <point x="696" y="129" type="curve" smooth="yes"/>
      <point x="409" y="129"/>
      <point x="228" y="295"/>
      <point x="228" y="522" type="curve" smooth="yes"/>
      <point x="228" y="708"/>
      <point x="354" y="879"/>
      <point x="685" y="879" type="curve"/>
      <point x="716" y="625" type="line"/>
      <point x="606" y="627"/>
      <point x="552" y="556"/>
      <point x="552" y="495" type="curve" smooth="yes"/>
      <point x="552" y="444"/>
      <point x="591" y="408"/>
      <point x="664" y="408" type="curve" smooth="yes"/>
      <point x="803" y="408"/>
      <point x="951" y="486"/>
    </contour>
    <contour>
      <point x="-30" y="1056" type="curve"/>
      <point x="-30" y="1294" type="line"/>
      <point x="954" y="1294" type="line"/>
      <point x="954" y="1056" type="line"/>
      <point x="954" y="1056"/>
      <point x="-30" y="1056"/>
    </contour>
  </outline>
</glyph>
<glyph name="chaprehalfdeva" format="1">
  <advance width="1644"/>
  <outline>
    <contour>
      <point x="610" y="767" type="curve"/>
      <point x="379" y="585" type="line"/>
      <point x="142" y="659"/>
      <point x="56" y="788"/>
      <point x="56" y="954" type="curve" smooth="yes"/>
      <point x="56" y="1095"/>
      <point x="206" y="1262"/>
      <point x="524" y="1264" type="curve"/>
      <point x="624" y="1076" type="line"/>
      <point x="483" y="1066"/>
      <point x="418" y="987"/>
      <point x="418" y="917" type="curve" smooth="yes"/>
      <point x="418" y="842"/>
      <point x="469" y="790"/>
    </contour>
    <contour>
      <point x="1674" y="1056" type="line"/>
      <point x="-30" y="1056" type="line"/>
      <point x="-30" y="1294" type="line"/>
      <point x="1674" y="1294" type="line"/>
    </contour>
    <contour>
      <point x="688" y="809" type="curve"/>
      <point x="780" y="526" type="line"/>
      <point x="779" y="526"/>
      <point x="777" y="526"/>
      <point x="776" y="526" type="curve" smooth="yes"/>
      <point x="612" y="510"/>
      <point x="557" y="444"/>
      <point x="557" y="372" type="curve" smooth="yes"/>
      <point x="557" y="296"/>
      <point x="621" y="240"/>
      <point x="750" y="240" type="curve" smooth="yes"/>
      <point x="1031" y="240"/>
      <point x="1290" y="459"/>
      <point x="1290" y="650" type="curve" smooth="yes"/>
      <point x="1290" y="708"/>
      <point x="1249" y="750"/>
      <point x="1197" y="750" type="curve" smooth="yes"/>
      <point x="1143" y="750"/>
      <point x="1108" y="702"/>
      <point x="1108" y="653" type="curve" smooth="yes"/>
      <point x="1108" y="558"/>
      <point x="1164" y="480"/>
      <point x="1346" y="357" type="curve"/>
      <point x="1167" y="190" type="line"/>
      <point x="913" y="361"/>
      <point x="809" y="536"/>
      <point x="809" y="697" type="curve" smooth="yes"/>
      <point x="809" y="857"/>
      <point x="942" y="998"/>
      <point x="1167" y="998" type="curve" smooth="yes"/>
      <point x="1435" y="998"/>
      <point x="1585" y="853"/>
      <point x="1585" y="621" type="curve" smooth="yes"/>
      <point x="1585" y="346"/>
      <point x="1276" y="-42"/>
      <point x="746" y="-42" type="curve" smooth="yes"/>
      <point x="375" y="-42"/>
      <point x="192" y="178"/>
      <point x="192" y="416" type="curve" smooth="yes"/>
      <point x="192" y="614"/>
      <point x="363" y="793"/>
      <point x="683" y="809" type="curve" smooth="yes"/>
      <point x="685" y="809"/>
      <point x="686" y="809"/>
    </contour>
  </outline>
</glyph>
<glyph name="charadeva" format="1">
  <advance width="1644"/>
  <outline>
    <component base="chadeva"/>
    <component base="vattudeva" xOffset="1210"/>
    <contour>
      <point x="683" y="-414" type="move" name="btm"/>
    </contour>
  </outline>
</glyph>
<glyph name="chayadeva" format="1">
  <advance width="2998"/>
  <outline>
    <contour>
      <point x="2448" y="1096" type="line"/>
      <point x="2814" y="1096" type="line"/>
      <point x="2814" y="-90" type="line"/>
      <point x="2448" y="-90" type="line"/>
    </contour>
    <contour>
      <point x="1283" y="732" type="line"/>
      <point x="1267" y="967" type="line"/>
      <point x="1900" y="967" type="line" smooth="yes"/>
      <point x="2147" y="967"/>
      <point x="2255" y="851"/>
      <point x="2255" y="708" type="curve" smooth="yes"/>
      <point x="2255" y="550"/>
      <point x="2128" y="429"/>
      <point x="1955" y="382" type="curve"/>
      <point x="1955" y="488" type="line"/>
      <point x="2018" y="406"/>
      <point x="2089" y="363"/>
      <point x="2171" y="363" type="curve" smooth="yes"/>
      <point x="2329" y="363"/>
      <point x="2440" y="445"/>
      <point x="2494" y="578" type="curve"/>
      <point x="2494" y="96" type="line"/>
      <point x="2439" y="80"/>
      <point x="2384" y="72"/>
      <point x="2294" y="72" type="curve" smooth="yes"/>
      <point x="2006" y="72"/>
      <point x="1747" y="264"/>
      <point x="1618" y="539" type="curve"/>
      <point x="1618" y="545" type="line"/>
      <point x="1846" y="580"/>
      <point x="1920" y="632"/>
      <point x="1920" y="674" type="curve" smooth="yes"/>
      <point x="1920" y="712"/>
      <point x="1896" y="732"/>
      <point x="1809" y="732" type="curve" smooth="yes"/>
    </contour>
    <contour>
      <point x="1502" y="1056" type="curve"/>
      <point x="1502" y="1294" type="line"/>
      <point x="3028" y="1294" type="line"/>
      <point x="3028" y="1056" type="line"/>
      <point x="3028" y="1056"/>
      <point x="1502" y="1056"/>
    </contour>
    <component base="chaprehalfdeva"/>
    <contour>
      <point x="2448" y="1294" type="move" name="top"/>
    </contour>
  </outline>
</glyph>
<glyph name="dabadeva" format="1">
  <advance width="1262"/>
  <outline>
    <contour>
      <point x="770" y="-208" type="line"/>
      <point x="641" y="-303" type="line"/>
      <point x="340" y="40" type="line"/>
      <point x="469" y="135" type="line"/>
    </contour>
    <contour>
      <point x="-30" y="1056" type="curve"/>
      <point x="-30" y="1294" type="line"/>
      <point x="1292" y="1294" type="line"/>
      <point x="1292" y="1056" type="line"/>
      <point x="1292" y="1056"/>
      <point x="-30" y="1056"/>
    </contour>
    <contour>
      <point x="676" y="159" type="line"/>
      <point x="951" y="247" type="line"/>
      <point x="1244" y="-300" type="line"/>
      <point x="982" y="-414" type="line"/>
    </contour>
    <contour>
      <point x="1168" y="164"/>
      <point x="1004" y="43"/>
      <point x="676" y="43" type="curve" smooth="yes"/>
      <point x="319" y="43"/>
      <point x="64" y="233"/>
      <point x="64" y="508" type="curve" smooth="yes"/>
      <point x="64" y="737"/>
      <point x="218" y="909"/>
      <point x="581" y="909" type="curve" smooth="yes"/>
      <point x="773" y="909" type="line"/>
      <point x="701" y="853" type="line"/>
      <point x="701" y="1086" type="line"/>
      <point x="1068" y="1086" type="line"/>
      <point x="1068" y="656" type="line"/>
      <point x="680" y="656" type="line" smooth="yes"/>
      <point x="484" y="656"/>
      <point x="404" y="581"/>
      <point x="404" y="466" type="curve" smooth="yes"/>
      <point x="404" y="364"/>
      <point x="493" y="295"/>
      <point x="610" y="295" type="curve" smooth="yes"/>
      <point x="705" y="295"/>
      <point x="751" y="296"/>
      <point x="870" y="321" type="curve"/>
      <point x="659" y="204" type="line"/>
      <point x="624" y="256"/>
      <point x="614" y="321"/>
      <point x="614" y="371" type="curve" smooth="yes"/>
      <point x="614" y="440"/>
      <point x="656" y="518"/>
      <point x="808" y="518" type="curve" smooth="yes"/>
      <point x="1012" y="518"/>
      <point x="1168" y="415"/>
      <point x="1168" y="290" type="curve" smooth="yes"/>
    </contour>
    <contour>
      <point x="554" y="74" type="line"/>
      <point x="431" y="29"/>
      <point x="370" y="-48"/>
      <point x="373" y="-124" type="curve" smooth="yes"/>
      <point x="375" y="-180"/>
      <point x="422" y="-221"/>
      <point x="479" y="-221" type="curve" smooth="yes"/>
      <point x="625" y="-221"/>
      <point x="743" y="-44"/>
      <point x="703" y="185" type="curve"/>
      <point x="920" y="-219" type="line"/>
      <point x="817" y="-373"/>
      <point x="667" y="-464"/>
      <point x="476" y="-464" type="curve" smooth="yes"/>
      <point x="235" y="-464"/>
      <point x="94" y="-284"/>
      <point x="94" y="-119" type="curve" smooth="yes"/>
      <point x="94" y="34"/>
      <point x="179" y="177"/>
      <point x="354" y="274" type="curve"/>
    </contour>
    <contour>
      <point x="660" y="-510" type="move" name="btm"/>
    </contour>
    <contour>
      <point x="649" y="1294" type="move" name="top"/>
    </contour>
  </outline>
</glyph>
<glyph name="dadadeva" format="1">
  <advance width="1276"/>
  <outline>
    <contour>
      <point x="766" y="-117" type="line"/>
      <point x="1040" y="-33" type="line"/>
      <point x="1256" y="-426" type="line"/>
      <point x="989" y="-532" type="line"/>
    </contour>
    <contour>
      <point x="1306" y="1056" type="line"/>
      <point x="-30" y="1056" type="line"/>
      <point x="-30" y="1294" type="line"/>
      <point x="1306" y="1294" type="line"/>
    </contour>
    <contour>
      <point x="584" y="356"/>
      <point x="493" y="255"/>
      <point x="493" y="163" type="curve" smooth="yes"/>
      <point x="493" y="68"/>
      <point x="582" y="21"/>
      <point x="707" y="21" type="curve" smooth="yes"/>
      <point x="791" y="21"/>
      <point x="889" y="27"/>
      <point x="962" y="48" type="curve"/>
      <point x="753" y="-78" type="line"/>
      <point x="716" y="-13"/>
      <point x="703" y="41"/>
      <point x="703" y="98" type="curve" smooth="yes"/>
      <point x="703" y="174"/>
      <point x="753" y="244"/>
      <point x="897" y="244" type="curve" smooth="yes"/>
      <point x="1118" y="244"/>
      <point x="1259" y="125"/>
      <point x="1259" y="15" type="curve" smooth="yes"/>
      <point x="1259" y="-104"/>
      <point x="1095" y="-231"/>
      <point x="763" y="-231" type="curve" smooth="yes"/>
      <point x="394" y="-231"/>
      <point x="156" y="-57"/>
      <point x="156" y="206" type="curve" smooth="yes"/>
      <point x="156" y="443"/>
      <point x="409" y="593"/>
      <point x="706" y="593" type="curve" smooth="yes"/>
      <point x="867" y="593"/>
      <point x="1009" y="569"/>
      <point x="1121" y="532" type="curve"/>
      <point x="1086" y="319" type="line"/>
      <point x="999" y="342"/>
      <point x="907" y="356"/>
      <point x="785" y="356" type="curve" smooth="yes"/>
    </contour>
    <contour>
      <point x="512" y="506" type="curve"/>
      <point x="292" y="333" type="line"/>
      <point x="127" y="432"/>
      <point x="43" y="543"/>
      <point x="43" y="680" type="curve" smooth="yes"/>
      <point x="43" y="821"/>
      <point x="146" y="935"/>
      <point x="392" y="935" type="curve" smooth="yes"/>
      <point x="776" y="935" type="line"/>
      <point x="707" y="867" type="line"/>
      <point x="707" y="1076" type="line"/>
      <point x="1072" y="1076" type="line"/>
      <point x="1072" y="696" type="line"/>
      <point x="518" y="696" type="line" smooth="yes"/>
      <point x="445" y="696"/>
      <point x="397" y="662"/>
      <point x="397" y="612" type="curve" smooth="yes"/>
      <point x="397" y="562"/>
      <point x="443" y="530"/>
    </contour>
    <contour>
      <point x="540" y="-510" type="move" name="btm"/>
    </contour>
    <contour>
      <point x="707" y="1294" type="move" name="top"/>
    </contour>
  </outline>
</glyph>
<glyph name="dadhadeva" format="1">
  <advance width="1535"/>
  <outline>
    <contour>
      <point x="571" y="-64" type="curve"/>
      <point x="512" y="-87"/>
      <point x="450" y="-100"/>
      <point x="338" y="-100" type="curve" smooth="yes"/>
      <point x="105" y="-100"/>
      <point x="-43" y="39"/>
      <point x="-43" y="232" type="curve" smooth="yes"/>
      <point x="-43" y="339"/>
      <point x="-3" y="445"/>
      <point x="67" y="546" type="curve"/>
      <point x="316" y="395" type="line"/>
      <point x="279" y="344"/>
      <point x="261" y="284"/>
      <point x="261" y="232" type="curve" smooth="yes"/>
      <point x="261" y="171"/>
      <point x="305" y="121"/>
      <point x="393" y="121" type="curve" smooth="yes"/>
      <point x="468" y="121"/>
      <point x="538" y="141"/>
      <point x="602" y="184" type="curve"/>
      <point x="602" y="184"/>
      <point x="571" y="-64"/>
    </contour>
    <contour>
      <point x="879" y="50" type="line"/>
      <point x="752" y="6"/>
      <point x="709" y="-81"/>
      <point x="708" y="-130" type="curve" smooth="yes"/>
      <point x="707" y="-175"/>
      <point x="735" y="-208"/>
      <point x="790" y="-208" type="curve" smooth="yes"/>
      <point x="915" y="-208"/>
      <point x="1036" y="-44"/>
      <point x="1008" y="185" type="curve"/>
      <point x="1225" y="-219" type="line"/>
      <point x="1122" y="-373"/>
      <point x="980" y="-462"/>
      <point x="788" y="-462" type="curve" smooth="yes"/>
      <point x="557" y="-462"/>
      <point x="433" y="-298"/>
      <point x="433" y="-140" type="curve" smooth="yes"/>
      <point x="433" y="-25"/>
      <point x="479" y="121"/>
      <point x="674" y="238" type="curve"/>
    </contour>
    <contour>
      <point x="-30" y="1056" type="curve"/>
      <point x="-30" y="1294" type="line"/>
      <point x="1565" y="1294" type="line"/>
      <point x="1565" y="1056" type="line"/>
      <point x="1565" y="1056"/>
      <point x="-30" y="1056"/>
    </contour>
    <contour>
      <point x="979" y="159" type="line"/>
      <point x="1254" y="247" type="line"/>
      <point x="1547" y="-300" type="line"/>
      <point x="1285" y="-414" type="line"/>
    </contour>
    <contour>
      <point x="1471" y="164"/>
      <point x="1307" y="43"/>
      <point x="979" y="43" type="curve" smooth="yes"/>
      <point x="622" y="43"/>
      <point x="367" y="233"/>
      <point x="367" y="508" type="curve" smooth="yes"/>
      <point x="367" y="737"/>
      <point x="521" y="909"/>
      <point x="884" y="909" type="curve" smooth="yes"/>
      <point x="1025" y="909" type="line"/>
      <point x="953" y="853" type="line"/>
      <point x="953" y="1086" type="line"/>
      <point x="1320" y="1086" type="line"/>
      <point x="1320" y="656" type="line"/>
      <point x="983" y="656" type="line" smooth="yes"/>
      <point x="787" y="656"/>
      <point x="707" y="581"/>
      <point x="707" y="466" type="curve" smooth="yes"/>
      <point x="707" y="364"/>
      <point x="796" y="295"/>
      <point x="913" y="295" type="curve" smooth="yes"/>
      <point x="1008" y="295"/>
      <point x="1054" y="296"/>
      <point x="1173" y="321" type="curve"/>
      <point x="962" y="204" type="line"/>
      <point x="927" y="256"/>
      <point x="917" y="321"/>
      <point x="917" y="371" type="curve" smooth="yes"/>
      <point x="917" y="440"/>
      <point x="959" y="518"/>
      <point x="1111" y="518" type="curve" smooth="yes"/>
      <point x="1315" y="518"/>
      <point x="1471" y="415"/>
      <point x="1471" y="290" type="curve" smooth="yes"/>
    </contour>
    <contour>
      <point x="950.0" y="-510.0" type="move" name="btm"/>
    </contour>
    <contour>
      <point x="954.0" y="1294.0" type="move" name="top"/>
    </contour>
  </outline>
</glyph>
<glyph name="darvocalicdeva" format="1">
  <advance width="1262"/>
  <outline>
    <contour>
      <point x="-30" y="1056" type="curve"/>
      <point x="-30" y="1294" type="line"/>
      <point x="1292" y="1294" type="line"/>
      <point x="1292" y="1056" type="line"/>
      <point x="1292" y="1056"/>
      <point x="-30" y="1056"/>
    </contour>
    <contour>
      <point x="1167" y="164"/>
      <point x="1003" y="43"/>
      <point x="675" y="43" type="curve" smooth="yes"/>
      <point x="318" y="43"/>
      <point x="63" y="233"/>
      <point x="63" y="508" type="curve" smooth="yes"/>
      <point x="63" y="751"/>
      <point x="237" y="909"/>
      <point x="574" y="909" type="curve" smooth="yes"/>
      <point x="773" y="909" type="line"/>
      <point x="701" y="853" type="line"/>
      <point x="701" y="1086" type="line"/>
      <point x="1068" y="1086" type="line"/>
      <point x="1068" y="656" type="line"/>
      <point x="679" y="656" type="line" smooth="yes"/>
      <point x="483" y="656"/>
      <point x="400" y="580"/>
      <point x="400" y="465" type="curve" smooth="yes"/>
      <point x="400" y="363"/>
      <point x="492" y="295"/>
      <point x="609" y="295" type="curve" smooth="yes"/>
      <point x="704" y="295"/>
      <point x="750" y="296"/>
      <point x="869" y="321" type="curve"/>
      <point x="657" y="203" type="line"/>
      <point x="621" y="268"/>
      <point x="613" y="321"/>
      <point x="613" y="371" type="curve" smooth="yes"/>
      <point x="613" y="440"/>
      <point x="655" y="518"/>
      <point x="807" y="518" type="curve" smooth="yes"/>
      <point x="1011" y="518"/>
      <point x="1167" y="415"/>
      <point x="1167" y="290" type="curve" smooth="yes"/>
    </contour>
    <contour>
      <point x="1184" y="-189" type="line"/>
      <point x="1178" y="-219" type="line"/>
      <point x="1138" y="-219"/>
      <point x="1073" y="-219"/>
      <point x="1031" y="-219" type="curve" smooth="yes"/>
      <point x="893" y="-219"/>
      <point x="834" y="-272"/>
      <point x="834" y="-349" type="curve" smooth="yes"/>
      <point x="834" y="-401"/>
      <point x="882" y="-439"/>
      <point x="967" y="-439" type="curve" smooth="yes"/>
      <point x="1044" y="-439"/>
      <point x="1102" y="-423"/>
      <point x="1190" y="-389" type="curve"/>
      <point x="1227" y="-620" type="line"/>
      <point x="1108" y="-654"/>
      <point x="1061" y="-659"/>
      <point x="976" y="-659" type="curve" smooth="yes"/>
      <point x="743" y="-659"/>
      <point x="539" y="-536"/>
      <point x="539" y="-320" type="curve" smooth="yes"/>
      <point x="539" y="-136"/>
      <point x="703" y="-8"/>
      <point x="949" y="-8" type="curve"/>
      <point x="831" y="-134" type="line"/>
      <point x="672" y="164" type="line"/>
      <point x="950" y="247" type="line"/>
    </contour>
  </outline>
</glyph>
<glyph name="dayaprehalfdeva" format="1">
  <advance width="1089"/>
  <outline>
    <contour>
      <point x="439" y="1095" type="line"/>
      <point x="805" y="1095" type="line"/>
      <point x="805" y="846" type="line"/>
      <point x="439" y="846" type="line"/>
    </contour>
    <contour>
      <point x="433" y="313" type="curve"/>
      <point x="145" y="400"/>
      <point x="21" y="540"/>
      <point x="21" y="693" type="curve" smooth="yes"/>
      <point x="21" y="844"/>
      <point x="143" y="946"/>
      <point x="383" y="946" type="curve" smooth="yes"/>
      <point x="506" y="946"/>
      <point x="710" y="946"/>
      <point x="805" y="946" type="curve"/>
      <point x="805" y="733" type="line"/>
      <point x="739" y="733"/>
      <point x="591" y="733"/>
      <point x="543" y="733" type="curve" smooth="yes"/>
      <point x="432" y="733"/>
      <point x="382" y="694"/>
      <point x="382" y="641" type="curve" smooth="yes"/>
      <point x="382" y="589"/>
      <point x="459" y="544"/>
      <point x="593" y="530" type="curve"/>
      <point x="593" y="530"/>
      <point x="433" y="313"/>
    </contour>
    <contour>
      <point x="1119" y="1056" type="line"/>
      <point x="-30" y="1056" type="line"/>
      <point x="-30" y="1294" type="line"/>
      <point x="1119" y="1294" type="line"/>
    </contour>
    <contour>
      <point x="367" y="335" type="curve" smooth="yes"/>
      <point x="367" y="507"/>
      <point x="506" y="642"/>
      <point x="883" y="642" type="curve" smooth="yes"/>
      <point x="889" y="642" type="line"/>
      <point x="969" y="396" type="line"/>
      <point x="958" y="396" type="line" smooth="yes"/>
      <point x="790" y="396"/>
      <point x="716" y="349"/>
      <point x="716" y="297" type="curve" smooth="yes"/>
      <point x="716" y="257"/>
      <point x="750" y="227"/>
      <point x="818" y="227" type="curve" smooth="yes"/>
      <point x="985" y="227"/>
      <point x="1134" y="341"/>
      <point x="1280" y="680" type="curve"/>
      <point x="1498" y="438" type="line"/>
      <point x="1378" y="198"/>
      <point x="1164" y="-28"/>
      <point x="829" y="-28" type="curve" smooth="yes"/>
      <point x="539" y="-28"/>
      <point x="367" y="138"/>
    </contour>
    <contour>
      <point x="439" y="1294" type="move" name="top"/>
    </contour>
  </outline>
</glyph>
<glyph name="ddaddadeva" format="1">
  <advance width="1270"/>
  <outline>
    <contour>
      <point x="635" y="176" type="line"/>
      <point x="991" y="176" type="line"/>
      <point x="991" y="-154" type="line"/>
      <point x="525" y="-154" type="line" smooth="yes"/>
      <point x="452" y="-154"/>
      <point x="422" y="-180"/>
      <point x="422" y="-216" type="curve" smooth="yes"/>
      <point x="422" y="-249"/>
      <point x="448" y="-267"/>
      <point x="510" y="-289" type="curve"/>
      <point x="394" y="-271" type="line"/>
      <point x="483" y="-234"/>
      <point x="595" y="-208"/>
      <point x="721" y="-208" type="curve" smooth="yes"/>
      <point x="997" y="-208"/>
      <point x="1132" y="-319"/>
      <point x="1132" y="-476" type="curve" smooth="yes"/>
      <point x="1132" y="-639"/>
      <point x="1008" y="-749"/>
      <point x="666" y="-749" type="curve" smooth="yes"/>
      <point x="463" y="-749"/>
      <point x="270" y="-701"/>
      <point x="65" y="-603" type="curve"/>
      <point x="123" y="-394" type="line"/>
      <point x="321" y="-504"/>
      <point x="481" y="-539"/>
      <point x="614" y="-539" type="curve" smooth="yes"/>
      <point x="764" y="-539"/>
      <point x="820" y="-512"/>
      <point x="820" y="-475" type="curve" smooth="yes"/>
      <point x="820" y="-440"/>
      <point x="780" y="-418"/>
      <point x="699" y="-418" type="curve" smooth="yes"/>
      <point x="612" y="-418"/>
      <point x="529" y="-439"/>
      <point x="461" y="-469" type="curve"/>
      <point x="453" y="-469" type="line"/>
      <point x="221" y="-382"/>
      <point x="119" y="-285"/>
      <point x="119" y="-159" type="curve" smooth="yes"/>
      <point x="119" y="-56"/>
      <point x="197" y="49"/>
      <point x="443" y="49" type="curve" smooth="yes"/>
      <point x="704" y="49" type="line"/>
      <point x="635" y="-19" type="line"/>
    </contour>
    <contour>
      <point x="685" y="1076" type="line"/>
      <point x="1051" y="1076" type="line"/>
      <point x="1051" y="736" type="line"/>
      <point x="535" y="736" type="line" smooth="yes"/>
      <point x="462" y="736"/>
      <point x="432" y="710"/>
      <point x="432" y="674" type="curve" smooth="yes"/>
      <point x="432" y="641"/>
      <point x="458" y="623"/>
      <point x="520" y="601" type="curve"/>
      <point x="404" y="619" type="line"/>
      <point x="493" y="656"/>
      <point x="605" y="682"/>
      <point x="731" y="682" type="curve" smooth="yes"/>
      <point x="1007" y="682"/>
      <point x="1162" y="561"/>
      <point x="1162" y="394" type="curve" smooth="yes"/>
      <point x="1162" y="231"/>
      <point x="1018" y="86"/>
      <point x="661" y="86" type="curve" smooth="yes"/>
      <point x="473" y="86"/>
      <point x="280" y="134"/>
      <point x="75" y="235" type="curve"/>
      <point x="133" y="476" type="line"/>
      <point x="331" y="366"/>
      <point x="491" y="321"/>
      <point x="624" y="321" type="curve" smooth="yes"/>
      <point x="774" y="321"/>
      <point x="830" y="358"/>
      <point x="830" y="395" type="curve" smooth="yes"/>
      <point x="830" y="430"/>
      <point x="790" y="452"/>
      <point x="709" y="452" type="curve" smooth="yes"/>
      <point x="622" y="452"/>
      <point x="539" y="431"/>
      <point x="471" y="401" type="curve"/>
      <point x="463" y="401" type="line"/>
      <point x="231" y="488"/>
      <point x="119" y="605"/>
      <point x="119" y="731" type="curve" smooth="yes"/>
      <point x="119" y="834"/>
      <point x="207" y="949"/>
      <point x="453" y="949" type="curve" smooth="yes"/>
      <point x="754" y="949" type="line"/>
      <point x="685" y="881" type="line"/>
    </contour>
    <contour>
      <point x="1300" y="1056" type="line"/>
      <point x="-30" y="1056" type="line"/>
      <point x="-30" y="1294" type="line"/>
      <point x="1300" y="1294" type="line"/>
    </contour>
    <contour>
      <point x="460" y="-730" type="move" name="btm"/>
    </contour>
    <contour>
      <point x="655.0" y="1294.0" type="move" name="top"/>
    </contour>
  </outline>
</glyph>
<glyph name="ddaddhadeva" format="1">
  <advance width="1270"/>
  <outline>
    <contour>
      <point x="585" y="186" type="line"/>
      <point x="940" y="186" type="line"/>
      <point x="940" y="-193" type="line"/>
      <point x="632" y="-193" type="line" smooth="yes"/>
      <point x="408" y="-193"/>
      <point x="339" y="-273"/>
      <point x="339" y="-369" type="curve" smooth="yes"/>
      <point x="339" y="-476"/>
      <point x="473" y="-547"/>
      <point x="686" y="-547" type="curve" smooth="yes"/>
      <point x="867" y="-547"/>
      <point x="911" y="-517"/>
      <point x="911" y="-484" type="curve" smooth="yes"/>
      <point x="911" y="-451"/>
      <point x="877" y="-434"/>
      <point x="817" y="-434" type="curve" smooth="yes"/>
      <point x="742" y="-434"/>
      <point x="680" y="-472"/>
      <point x="680" y="-526" type="curve" smooth="yes"/>
      <point x="680" y="-570"/>
      <point x="695" y="-611"/>
      <point x="715" y="-648" type="curve"/>
      <point x="452" y="-668" type="line"/>
      <point x="420" y="-603"/>
      <point x="409" y="-554"/>
      <point x="409" y="-482" type="curve" smooth="yes"/>
      <point x="409" y="-385"/>
      <point x="534" y="-268"/>
      <point x="803" y="-268" type="curve" smooth="yes"/>
      <point x="1072" y="-268"/>
      <point x="1162" y="-376"/>
      <point x="1162" y="-484" type="curve" smooth="yes"/>
      <point x="1162" y="-607"/>
      <point x="1014" y="-728"/>
      <point x="684" y="-728" type="curve" smooth="yes"/>
      <point x="251" y="-728"/>
      <point x="4" y="-518"/>
      <point x="4" y="-299" type="curve" smooth="yes"/>
      <point x="4" y="-131"/>
      <point x="125" y="29"/>
      <point x="520" y="29" type="curve" smooth="yes"/>
      <point x="626" y="29" type="line"/>
      <point x="585" y="-5" type="line"/>
    </contour>
    <contour>
      <point x="685" y="1076" type="line"/>
      <point x="1051" y="1076" type="line"/>
      <point x="1051" y="736" type="line"/>
      <point x="535" y="736" type="line" smooth="yes"/>
      <point x="462" y="736"/>
      <point x="432" y="710"/>
      <point x="432" y="674" type="curve" smooth="yes"/>
      <point x="432" y="641"/>
      <point x="458" y="623"/>
      <point x="520" y="601" type="curve"/>
      <point x="404" y="619" type="line"/>
      <point x="493" y="656"/>
      <point x="605" y="682"/>
      <point x="731" y="682" type="curve" smooth="yes"/>
      <point x="1007" y="682"/>
      <point x="1162" y="561"/>
      <point x="1162" y="394" type="curve" smooth="yes"/>
      <point x="1162" y="231"/>
      <point x="1018" y="86"/>
      <point x="661" y="86" type="curve" smooth="yes"/>
      <point x="473" y="86"/>
      <point x="280" y="134"/>
      <point x="75" y="235" type="curve"/>
      <point x="133" y="476" type="line"/>
      <point x="331" y="366"/>
      <point x="491" y="321"/>
      <point x="624" y="321" type="curve" smooth="yes"/>
      <point x="774" y="321"/>
      <point x="830" y="358"/>
      <point x="830" y="395" type="curve" smooth="yes"/>
      <point x="830" y="430"/>
      <point x="790" y="452"/>
      <point x="709" y="452" type="curve" smooth="yes"/>
      <point x="622" y="452"/>
      <point x="539" y="431"/>
      <point x="471" y="401" type="curve"/>
      <point x="463" y="401" type="line"/>
      <point x="231" y="488"/>
      <point x="119" y="605"/>
      <point x="119" y="731" type="curve" smooth="yes"/>
      <point x="119" y="834"/>
      <point x="207" y="949"/>
      <point x="453" y="949" type="curve" smooth="yes"/>
      <point x="754" y="949" type="line"/>
      <point x="685" y="881" type="line"/>
    </contour>
    <contour>
      <point x="1300" y="1056" type="line"/>
      <point x="-30" y="1056" type="line"/>
      <point x="-30" y="1294" type="line"/>
      <point x="1300" y="1294" type="line"/>
    </contour>
    <contour>
      <point x="460" y="-730" type="move" name="btm"/>
    </contour>
    <contour>
      <point x="655.0" y="1294.0" type="move" name="top"/>
    </contour>
  </outline>
</glyph>
<glyph name="ddaradeva" format="1">
  <advance width="1270"/>
  <outline>
    <component base="ddadeva"/>
    <component base="vattudeva" xOffset="1040"/>
    <contour>
      <point x="685" y="1294" type="move" name="top"/>
    </contour>
    <contour>
      <point x="543" y="-414" type="move" name="_btm"/>
    </contour>
  </outline>
</glyph>
<glyph name="ecandravowelsignanusvaradeva" format="1">
  <advance width="0"/>
  <outline>
    <component base="candrabindudeva"/>
    <contour>
      <point x="-552" y="1294" type="move" name="_top"/>
    </contour>
  </outline>
</glyph>
<glyph name="eightdevaNEP" format="1">
  <advance width="1271"/>
  <outline>
    <contour>
      <point x="38" y="1036" type="curve"/>
      <point x="38" y="1274" type="line"/>
      <point x="1210" y="1274" type="line"/>
      <point x="1210" y="1036" type="line"/>
      <point x="1210" y="1036"/>
      <point x="38" y="1036"/>
    </contour>
    <contour>
      <point x="527" y="192" type="curve" smooth="yes"/>
      <point x="331" y="192"/>
      <point x="140" y="338"/>
      <point x="140" y="630" type="curve" smooth="yes"/>
      <point x="140" y="809"/>
      <point x="186" y="995"/>
      <point x="302" y="1175" type="curve"/>
      <point x="641" y="1057" type="line"/>
      <point x="519" y="897"/>
      <point x="470" y="761"/>
      <point x="470" y="639" type="curve" smooth="yes"/>
      <point x="470" y="548"/>
      <point x="522" y="485"/>
      <point x="586" y="485" type="curve" smooth="yes"/>
      <point x="686" y="485"/>
      <point x="780" y="507"/>
      <point x="918" y="507" type="curve" smooth="yes"/>
      <point x="1131" y="507"/>
      <point x="1265" y="363"/>
      <point x="1265" y="188" type="curve" smooth="yes"/>
      <point x="1265" y="73"/>
      <point x="1232" y="-15"/>
      <point x="1167" y="-122" type="curve"/>
      <point x="839" y="-47" type="line"/>
      <point x="892" y="20"/>
      <point x="936" y="93"/>
      <point x="936" y="152" type="curve" smooth="yes"/>
      <point x="936" y="200"/>
      <point x="907" y="223"/>
      <point x="853" y="224" type="curve" smooth="yes"/>
      <point x="782" y="225"/>
      <point x="653" y="192"/>
    </contour>
  </outline>
</glyph>
<glyph name="ghaprehalfdeva" format="1">
  <advance width="978"/>
  <outline>
    <contour>
      <point x="840" y="627" type="line"/>
      <point x="829" y="626" type="line" smooth="yes"/>
      <point x="673" y="612"/>
      <point x="617" y="553"/>
      <point x="617" y="498" type="curve" smooth="yes"/>
      <point x="617" y="451"/>
      <point x="662" y="417"/>
      <point x="729" y="417" type="curve" smooth="yes"/>
      <point x="876" y="417"/>
      <point x="1035" y="512"/>
      <point x="1155" y="670" type="curve"/>
      <point x="1335" y="405" type="line"/>
      <point x="1179" y="225"/>
      <point x="1003" y="124"/>
      <point x="770" y="124" type="curve" smooth="yes"/>
      <point x="462" y="124"/>
      <point x="286" y="319"/>
      <point x="286" y="537" type="curve" smooth="yes"/>
      <point x="286" y="714"/>
      <point x="413" y="913"/>
      <point x="743" y="913" type="curve" smooth="yes"/>
      <point x="749" y="913" type="line"/>
    </contour>
    <contour>
      <point x="371" y="674" type="curve"/>
      <point x="156" y="734"/>
      <point x="55" y="863"/>
      <point x="55" y="1020" type="curve" smooth="yes"/>
      <point x="55" y="1092"/>
      <point x="75" y="1159"/>
      <point x="131" y="1208" type="curve"/>
      <point x="483" y="1130" type="line"/>
      <point x="443" y="1091"/>
      <point x="428" y="1044"/>
      <point x="428" y="994" type="curve" smooth="yes"/>
      <point x="428" y="933"/>
      <point x="470" y="857"/>
      <point x="629" y="860" type="curve"/>
      <point x="629" y="860"/>
      <point x="371" y="674"/>
    </contour>
    <contour>
      <point x="1008" y="1056"/>
      <point x="-30" y="1056"/>
      <point x="-30" y="1056" type="curve"/>
      <point x="-30" y="1294" type="line"/>
      <point x="1008" y="1294" type="line"/>
      <point x="1008" y="1056" type="line"/>
    </contour>
  </outline>
</glyph>
<glyph name="haprehalfdeva" format="1">
  <advance width="969"/>
  <outline>
    <contour>
      <point x="472" y="1066" type="line"/>
      <point x="837" y="1066" type="line"/>
      <point x="837" y="696" type="line"/>
      <point x="529" y="696" type="line" smooth="yes"/>
      <point x="435" y="696"/>
      <point x="396" y="658"/>
      <point x="396" y="608" type="curve" smooth="yes"/>
      <point x="396" y="557"/>
      <point x="441" y="527"/>
      <point x="536" y="506" type="curve"/>
      <point x="536" y="506"/>
      <point x="292" y="331"/>
      <point x="292" y="331" type="curve"/>
      <point x="122" y="434"/>
      <point x="42" y="547"/>
      <point x="42" y="683" type="curve" smooth="yes"/>
      <point x="42" y="822"/>
      <point x="154" y="934"/>
      <point x="378" y="934" type="curve" smooth="yes"/>
      <point x="511" y="934" type="line"/>
      <point x="472" y="881" type="line"/>
    </contour>
    <contour>
      <point x="159" y="377"/>
      <point x="326" y="569"/>
      <point x="711" y="569" type="curve" smooth="yes"/>
      <point x="1277" y="569" type="line"/>
      <point x="1307" y="304" type="line"/>
      <point x="730" y="304" type="line" smooth="yes"/>
      <point x="566" y="304"/>
      <point x="501" y="226"/>
      <point x="501" y="132" type="curve" smooth="yes"/>
      <point x="501" y="9"/>
      <point x="598" y="-76"/>
      <point x="1066" y="-135" type="curve"/>
      <point x="972" y="-373" type="line"/>
      <point x="401" y="-305"/>
      <point x="159" y="-112"/>
      <point x="159" y="174" type="curve" smooth="yes"/>
    </contour>
    <contour>
      <point x="999" y="1056" type="line"/>
      <point x="-30" y="1056" type="line"/>
      <point x="-30" y="1294" type="line"/>
      <point x="999" y="1294" type="line"/>
    </contour>
  </outline>
</glyph>
<glyph name="kassadeva" format="1">
  <advance width="1735"/>
  <outline>
    <contour>
      <point x="1185" y="1096" type="line"/>
      <point x="1551" y="1096" type="line"/>
      <point x="1551" y="0" type="line"/>
      <point x="1185" y="0" type="line"/>
    </contour>
    <contour>
      <point x="1765" y="1056" type="line"/>
      <point x="1073" y="1056" type="line"/>
      <point x="1073" y="1294" type="line"/>
      <point x="1765" y="1294" type="line"/>
    </contour>
    <contour>
      <point x="513" y="117" type="line"/>
      <point x="760" y="196" type="line"/>
      <point x="900" y="-120" type="line"/>
      <point x="636" y="-203" type="line"/>
    </contour>
    <contour>
      <point x="618" y="986" type="curve" smooth="yes"/>
      <point x="618" y="1036"/>
      <point x="583" y="1068"/>
      <point x="531" y="1068" type="curve" smooth="yes"/>
      <point x="474" y="1068"/>
      <point x="441" y="1029"/>
      <point x="441" y="972" type="curve" smooth="yes"/>
      <point x="441" y="843"/>
      <point x="794" y="733"/>
      <point x="1300" y="733" type="curve"/>
      <point x="1300" y="458" type="line"/>
      <point x="564" y="458"/>
      <point x="132" y="747"/>
      <point x="132" y="1026" type="curve" smooth="yes"/>
      <point x="132" y="1192"/>
      <point x="256" y="1323"/>
      <point x="499" y="1323" type="curve" smooth="yes"/>
      <point x="774" y="1323"/>
      <point x="905" y="1165"/>
      <point x="905" y="996" type="curve" smooth="yes"/>
      <point x="905" y="824"/>
      <point x="825" y="704"/>
      <point x="608" y="575" type="curve" smooth="yes"/>
      <point x="438" y="474"/>
      <point x="376" y="401"/>
      <point x="376" y="339" type="curve" smooth="yes"/>
      <point x="376" y="274"/>
      <point x="417" y="240"/>
      <point x="497" y="240" type="curve" smooth="yes"/>
      <point x="541" y="240"/>
      <point x="546" y="241"/>
      <point x="619" y="262" type="curve"/>
      <point x="497" y="156" type="line"/>
      <point x="480" y="201"/>
      <point x="472" y="229"/>
      <point x="472" y="276" type="curve" smooth="yes"/>
      <point x="472" y="335"/>
      <point x="553" y="401"/>
      <point x="647" y="401" type="curve" smooth="yes"/>
      <point x="818" y="401"/>
      <point x="922" y="310"/>
      <point x="922" y="216" type="curve" smooth="yes"/>
      <point x="922" y="117"/>
      <point x="758" y="10"/>
      <point x="529" y="10" type="curve" smooth="yes"/>
      <point x="262" y="10"/>
      <point x="46" y="128"/>
      <point x="46" y="370" type="curve" smooth="yes"/>
      <point x="46" y="515"/>
      <point x="153" y="632"/>
      <point x="365" y="746" type="curve" smooth="yes"/>
      <point x="570" y="856"/>
      <point x="618" y="916"/>
    </contour>
    <contour>
      <point x="1185" y="1294" type="move" name="top"/>
    </contour>
  </outline>
</glyph>
<glyph name="lamadeva" format="1">
  <advance width="2637"/>
  <outline>
    <contour>
      <point x="1039" y="623" type="curve"/>
      <point x="817" y="446" type="line"/>
      <point x="739" y="558"/>
      <point x="660" y="606"/>
      <point x="579" y="606" type="curve" smooth="yes"/>
      <point x="459" y="606"/>
      <point x="395" y="528"/>
      <point x="395" y="430" type="curve" smooth="yes"/>
      <point x="395" y="319"/>
      <point x="462" y="227"/>
      <point x="559" y="118" type="curve"/>
      <point x="313" y="-18" type="line"/>
      <point x="189" y="109"/>
      <point x="66" y="317"/>
      <point x="66" y="505" type="curve" smooth="yes"/>
      <point x="66" y="739"/>
      <point x="232" y="910"/>
      <point x="497" y="910" type="curve" smooth="yes"/>
      <point x="718" y="910"/>
      <point x="904" y="809"/>
    </contour>
    <contour>
      <point x="897" y="228" type="curve"/>
      <point x="606" y="363" type="line"/>
      <point x="720" y="655"/>
      <point x="909" y="856"/>
      <point x="1149" y="856" type="curve" smooth="yes"/>
      <point x="1329" y="856"/>
      <point x="1468" y="780"/>
      <point x="1599" y="643" type="curve"/>
      <point x="1377" y="446" type="line"/>
      <point x="1319" y="511"/>
      <point x="1269" y="538"/>
      <point x="1192" y="538" type="curve" smooth="yes"/>
      <point x="1089" y="538"/>
      <point x="988" y="438"/>
    </contour>
    <contour>
      <point x="-30" y="1056" type="curve"/>
      <point x="-30" y="1294" type="line"/>
      <point x="1223" y="1294" type="line"/>
      <point x="1223" y="1056" type="line"/>
      <point x="1223" y="1056"/>
      <point x="-30" y="1056"/>
    </contour>
    <component base="madeva" xOffset="1223"/>
  </outline>
</glyph>
<glyph name="laraprehalfdeva" format="1">
  <advance width="1123"/>
  <outline>
    <contour>
      <point x="-30" y="1056" type="curve"/>
      <point x="-30" y="1294" type="line"/>
      <point x="1153" y="1294" type="line"/>
      <point x="1153" y="1056" type="line"/>
      <point x="1153" y="1056"/>
      <point x="-30" y="1056"/>
    </contour>
    <contour>
      <point x="1039" y="623" type="curve"/>
      <point x="817" y="446" type="line"/>
      <point x="739" y="558"/>
      <point x="660" y="606"/>
      <point x="579" y="606" type="curve" smooth="yes"/>
      <point x="459" y="606"/>
      <point x="395" y="528"/>
      <point x="395" y="430" type="curve" smooth="yes"/>
      <point x="395" y="319"/>
      <point x="462" y="227"/>
      <point x="559" y="118" type="curve"/>
      <point x="313" y="-18" type="line"/>
      <point x="189" y="109"/>
      <point x="66" y="317"/>
      <point x="66" y="505" type="curve" smooth="yes"/>
      <point x="66" y="739"/>
      <point x="232" y="910"/>
      <point x="497" y="910" type="curve" smooth="yes"/>
      <point x="718" y="910"/>
      <point x="904" y="809"/>
    </contour>
    <contour>
      <point x="1363" y="853" type="line"/>
      <point x="1439" y="536" type="line"/>
      <point x="763" y="164" type="line"/>
      <point x="566" y="403" type="line"/>
    </contour>
    <contour>
      <point x="1543" y="221" type="line"/>
      <point x="1012" y="-177" type="line"/>
      <point x="824" y="18" type="line"/>
      <point x="1365" y="437" type="line"/>
    </contour>
  </outline>
</glyph>
<glyph name="llaradeva" format="1">
  <advance width="1708"/>
  <outline>
    <component base="lladeva"/>
    <component base="vattudeva" xOffset="1590"/>
    <contour>
      <point x="1263.0" y="-249.0" type="move" name="x54"/>
    </contour>
    <contour>
      <point x="1073" y="1294" type="move" name="top"/>
    </contour>
  </outline>
</glyph>
<glyph name="ngagadeva" format="1">
  <advance width="1294"/>
  <outline>
    <contour>
      <point x="7.0" y="-166.0" type="curve" smooth="yes"/>
      <point x="7.0" y="-102.0"/>
      <point x="48.0" y="-58.0"/>
      <point x="133.0" y="-58.0" type="curve" smooth="yes"/>
      <point x="240.0" y="-58.0" type="line"/>
      <point x="203.0" y="-87.0" type="line"/>
      <point x="203.0" y="242.0" type="line"/>
      <point x="518.0" y="242.0" type="line"/>
      <point x="518.0" y="242.0"/>
      <point x="518.0" y="-342.0"/>
      <point x="518.0" y="-342.0" type="curve" smooth="yes"/>
      <point x="518.0" y="-435.0"/>
      <point x="482.0" y="-491.0"/>
      <point x="400.0" y="-491.0" type="curve" smooth="yes"/>
      <point x="318.0" y="-491.0"/>
      <point x="185.0" y="-421.0"/>
      <point x="96.0" y="-333.0" type="curve" smooth="yes"/>
      <point x="44.0" y="-280.0"/>
      <point x="7.0" y="-221.0"/>
    </contour>
    <contour>
      <point x="762" y="243" type="line"/>
      <point x="1078" y="243" type="line"/>
      <point x="1078" y="-623" type="line"/>
      <point x="762" y="-623" type="line"/>
    </contour>
    <contour>
      <point x="685" y="1076" type="line"/>
      <point x="1051" y="1076" type="line"/>
      <point x="1051" y="713" type="line"/>
      <point x="535" y="713" type="line" smooth="yes"/>
      <point x="462" y="713"/>
      <point x="437" y="689"/>
      <point x="437" y="653" type="curve" smooth="yes"/>
      <point x="437" y="620"/>
      <point x="458" y="603"/>
      <point x="520" y="578" type="curve"/>
      <point x="404" y="596" type="line"/>
      <point x="493" y="633"/>
      <point x="605" y="659"/>
      <point x="731" y="659" type="curve" smooth="yes"/>
      <point x="1007" y="659"/>
      <point x="1162" y="536"/>
      <point x="1162" y="359" type="curve" smooth="yes"/>
      <point x="1162" y="196"/>
      <point x="1018" y="44"/>
      <point x="661" y="44" type="curve" smooth="yes"/>
      <point x="471" y="44"/>
      <point x="295" y="84"/>
      <point x="71" y="186" type="curve"/>
      <point x="133" y="444" type="line"/>
      <point x="331" y="332"/>
      <point x="490" y="283"/>
      <point x="624" y="283" type="curve" smooth="yes"/>
      <point x="778" y="283"/>
      <point x="830" y="321"/>
      <point x="830" y="360" type="curve" smooth="yes"/>
      <point x="830" y="392"/>
      <point x="790" y="417"/>
      <point x="709" y="417" type="curve" smooth="yes"/>
      <point x="622" y="417"/>
      <point x="539" y="396"/>
      <point x="471" y="366" type="curve"/>
      <point x="463" y="366" type="line"/>
      <point x="220" y="447"/>
      <point x="119" y="570"/>
      <point x="119" y="708" type="curve" smooth="yes"/>
      <point x="119" y="829"/>
      <point x="207" y="946"/>
      <point x="453" y="946" type="curve" smooth="yes"/>
      <point x="754" y="946" type="line"/>
      <point x="685" y="878" type="line"/>
    </contour>
    <contour>
      <point x="1285" y="813" type="curve" smooth="yes"/>
      <point x="1423" y="813"/>
      <point x="1467" y="729"/>
      <point x="1467" y="665" type="curve" smooth="yes"/>
      <point x="1467" y="601"/>
      <point x="1414" y="517"/>
      <point x="1285" y="517" type="curve" smooth="yes"/>
      <point x="1146" y="517"/>
      <point x="1099" y="602"/>
      <point x="1099" y="665" type="curve" smooth="yes"/>
      <point x="1099" y="728"/>
      <point x="1150" y="813"/>
    </contour>
    <contour>
      <point x="1324" y="1056" type="line"/>
      <point x="-30" y="1056" type="line"/>
      <point x="-30" y="1294" type="line"/>
      <point x="1324" y="1294" type="line"/>
    </contour>
    <contour>
      <point x="685.0" y="1294.0" type="move" name="top"/>
    </contour>
    <contour>
      <point x="443.0" y="-721.0" type="move" name="btm"/>
    </contour>
  </outline>
</glyph>
<glyph name="paraprehalfdeva" format="1">
  <advance width="712"/>
  <outline>
    <contour>
      <point x="932" y="333" type="line"/>
      <point x="259" y="-105" type="line"/>
      <point x="74" y="138" type="line"/>
      <point x="765" y="578" type="line"/>
    </contour>
    <component base="paprehalfdeva"/>
  </outline>
</glyph>
<glyph name="rahalantdeva" format="1">
  <advance width="1016"/>
  <outline>
    <component base="radeva"/>
    <component base="viramadeva" xOffset="770"/>
    <contour>
      <point x="482.0" y="56.0" type="move" name="btm"/>
    </contour>
    <contour>
      <point x="527.0" y="1294.0" type="move" name="top"/>
    </contour>
  </outline>
</glyph>
<glyph name="raudeva" format="1">
  <advance width="1391"/>
  <outline>
    <contour>
      <point x="581" y="1056" type="line"/>
      <point x="581" y="1294" type="line"/>
      <point x="1421" y="1294" type="line"/>
      <point x="1421" y="1056" type="line"/>
    </contour>
    <contour>
      <point x="709" y="518" type="curve"/>
      <point x="652" y="892" type="line"/>
      <point x="712" y="899"/>
      <point x="793" y="906"/>
      <point x="871" y="906" type="curve" smooth="yes"/>
      <point x="1180" y="906"/>
      <point x="1319" y="738"/>
      <point x="1319" y="542" type="curve" smooth="yes"/>
      <point x="1319" y="422"/>
      <point x="1256" y="289"/>
      <point x="1182" y="212" type="curve"/>
      <point x="892" y="327" type="line"/>
      <point x="974" y="421"/>
      <point x="1005" y="482"/>
      <point x="1005" y="547" type="curve" smooth="yes"/>
      <point x="1005" y="594"/>
      <point x="971" y="630"/>
      <point x="917" y="630" type="curve" smooth="yes"/>
      <point x="864" y="630"/>
      <point x="803" y="603"/>
    </contour>
    <component base="radeva"/>
    <contour>
      <point x="527" y="1294" type="move" name="top"/>
    </contour>
  </outline>
</glyph>
<glyph name="rauudeva" format="1">
  <advance width="1702"/>
  <outline>
    <contour>
      <point x="581" y="1056" type="line"/>
      <point x="581" y="1294" type="line"/>
      <point x="1732" y="1294" type="line"/>
      <point x="1732" y="1056" type="line"/>
    </contour>
    <contour>
      <point x="1210" y="204" type="line"/>
      <point x="888" y="204"/>
      <point x="711" y="399"/>
      <point x="711" y="620" type="curve" smooth="yes"/>
      <point x="711" y="784"/>
      <point x="839" y="909"/>
      <point x="1022" y="909" type="curve" smooth="yes"/>
      <point x="1290" y="909"/>
      <point x="1508" y="762"/>
      <point x="1650" y="297" type="curve"/>
      <point x="1450" y="185" type="line"/>
      <point x="1317" y="545"/>
      <point x="1205" y="623"/>
      <point x="1094" y="623" type="curve" smooth="yes"/>
      <point x="1038" y="623"/>
      <point x="1005" y="588"/>
      <point x="1005" y="546" type="curve" smooth="yes"/>
      <point x="1005" y="493"/>
      <point x="1058" y="445"/>
      <point x="1241" y="445" type="curve"/>
    </contour>
    <component base="radeva"/>
    <contour>
      <point x="527" y="1294" type="move" name="top"/>
    </contour>
  </outline>
</glyph>
<glyph name="sharaprehalfdeva" format="1">
  <advance width="1046"/>
  <outline>
    <contour>
      <point x="1301" y="415" type="line"/>
      <point x="559" y="-41" type="line"/>
      <point x="392" y="215" type="line"/>
      <point x="1040" y="608" type="line"/>
      <point x="1177" y="446" type="line"/>
      <point x="392" y="531"/>
      <point x="144" y="781"/>
      <point x="144" y="1024" type="curve" smooth="yes"/>
      <point x="144" y="1179"/>
      <point x="274" y="1327"/>
      <point x="522" y="1327" type="curve" smooth="yes"/>
      <point x="783" y="1327"/>
      <point x="929" y="1170"/>
      <point x="929" y="968" type="curve" smooth="yes"/>
      <point x="929" y="777"/>
      <point x="804" y="623"/>
      <point x="485" y="459" type="curve" smooth="yes"/>
      <point x="201" y="313" type="line"/>
      <point x="44" y="575" type="line"/>
      <point x="360" y="736" type="line" smooth="yes"/>
      <point x="559" y="837"/>
      <point x="634" y="901"/>
      <point x="634" y="977" type="curve" smooth="yes"/>
      <point x="634" y="1027"/>
      <point x="603" y="1066"/>
      <point x="552" y="1066" type="curve" smooth="yes"/>
      <point x="488" y="1066"/>
      <point x="461" y="1028"/>
      <point x="461" y="981" type="curve" smooth="yes"/>
      <point x="461" y="876"/>
      <point x="666" y="786"/>
      <point x="1251" y="691" type="curve"/>
    </contour>
  </outline>
</glyph>
<glyph name="ssatthadeva" format="1">
  <advance width="1320"/>
  <outline>
    <contour>
      <point x="927" y="597" type="line"/>
      <point x="798" y="502" type="line"/>
      <point x="417" y="1045" type="line"/>
      <point x="546" y="1140" type="line"/>
    </contour>
    <contour>
      <point x="1350" y="1056" type="line"/>
      <point x="-30" y="1056" type="line"/>
      <point x="-30" y="1294" type="line"/>
      <point x="1350" y="1294" type="line"/>
    </contour>
    <contour>
      <point x="845" y="766" type="curve" smooth="yes"/>
      <point x="845" y="1096" type="line"/>
      <point x="1201" y="1096" type="line"/>
      <point x="1201" y="749" type="line" smooth="yes"/>
      <point x="1201" y="501"/>
      <point x="1046" y="313"/>
      <point x="690" y="313" type="curve" smooth="yes"/>
      <point x="354" y="313"/>
      <point x="119" y="488"/>
      <point x="119" y="805" type="curve" smooth="yes"/>
      <point x="119" y="1166" type="line"/>
      <point x="475" y="1166" type="line"/>
      <point x="475" y="722" type="line" smooth="yes"/>
      <point x="475" y="638"/>
      <point x="571" y="592"/>
      <point x="640" y="592" type="curve" smooth="yes"/>
      <point x="768" y="592"/>
      <point x="845" y="661"/>
    </contour>
    <contour>
      <point x="925" y="181" type="curve" smooth="yes"/>
      <point x="925" y="234"/>
      <point x="900" y="281"/>
      <point x="850" y="313" type="curve"/>
      <point x="674" y="313" type="line" smooth="yes"/>
      <point x="497" y="313"/>
      <point x="441" y="224"/>
      <point x="441" y="156" type="curve" smooth="yes"/>
      <point x="441" y="85"/>
      <point x="497" y="13"/>
      <point x="665" y="13" type="curve" smooth="yes"/>
      <point x="847" y="13"/>
      <point x="925" y="95"/>
    </contour>
    <contour>
      <point x="891" y="577" type="curve"/>
      <point x="1146" y="495"/>
      <point x="1257" y="327"/>
      <point x="1257" y="144" type="curve" smooth="yes"/>
      <point x="1257" y="-61"/>
      <point x="1081" y="-237"/>
      <point x="711" y="-238" type="curve" smooth="yes"/>
      <point x="279" y="-239"/>
      <point x="96" y="-16"/>
      <point x="96" y="206" type="curve" smooth="yes"/>
      <point x="96" y="414"/>
      <point x="257" y="577"/>
      <point x="563" y="577" type="curve" smooth="yes"/>
      <point x="563" y="577"/>
      <point x="891" y="577"/>
    </contour>
    <contour>
      <point x="500.0" y="-230.0" type="move" name="btm"/>
    </contour>
    <contour>
      <point x="845.0" y="1294.0" type="move" name="top"/>
    </contour>
  </outline>
</glyph>
<glyph name="ssattharadeva" format="1">
  <advance width="1320"/>
  <outline>
    <component base="ssatthadeva"/>
    <component base="vattudeva" xOffset="1052" yOffset="-230"/>
    <contour>
      <point x="845" y="1294" type="move" name="top"/>
    </contour>
    <contour>
      <point x="523" y="-644" type="move" name="_btm"/>
    </contour>
  </outline>
</glyph>
<glyph name="takhadeva" format="1">
  <advance width="2559"/>
  <outline>
    <contour>
      <point x="861" y="860" type="line"/>
      <point x="841" y="557" type="line"/>
      <point x="660" y="557" type="line" smooth="yes"/>
      <point x="480" y="557"/>
      <point x="425" y="467"/>
      <point x="425" y="360" type="curve" smooth="yes"/>
      <point x="425" y="266"/>
      <point x="473" y="158"/>
      <point x="559" y="1" type="curve"/>
      <point x="268" y="-84" type="line"/>
      <point x="152" y="107"/>
      <point x="84" y="293"/>
      <point x="86" y="453" type="curve" smooth="yes"/>
      <point x="89" y="683"/>
      <point x="233" y="860"/>
      <point x="576" y="860" type="curve" smooth="yes"/>
    </contour>
    <contour>
      <point x="-30" y="1056" type="curve"/>
      <point x="-30" y="1294" type="line"/>
      <point x="733" y="1294" type="line"/>
      <point x="733" y="1056" type="line"/>
      <point x="733" y="1056"/>
      <point x="-30" y="1056"/>
    </contour>
    <component base="khadeva" xOffset="680"/>
  </outline>
</glyph>
<glyph name="ttattadeva" format="1">
  <advance width="1228"/>
  <outline>
    <contour>
      <point x="562" y="193" type="line"/>
      <point x="928" y="193" type="line"/>
      <point x="928" y="-206" type="line"/>
      <point x="628" y="-206" type="line" smooth="yes"/>
      <point x="485" y="-206"/>
      <point x="416" y="-273"/>
      <point x="416" y="-336" type="curve" smooth="yes"/>
      <point x="416" y="-403"/>
      <point x="465" y="-459"/>
      <point x="617" y="-459" type="curve" smooth="yes"/>
      <point x="719" y="-459"/>
      <point x="847" y="-438"/>
      <point x="998" y="-393" type="curve"/>
      <point x="1065" y="-665" type="line"/>
      <point x="934" y="-706"/>
      <point x="815" y="-730"/>
      <point x="654" y="-730" type="curve" smooth="yes"/>
      <point x="250" y="-730"/>
      <point x="50" y="-522"/>
      <point x="50" y="-300" type="curve" smooth="yes"/>
      <point x="50" y="-101"/>
      <point x="207" y="49"/>
      <point x="518" y="49" type="curve" smooth="yes"/>
      <point x="602" y="49" type="line"/>
      <point x="562" y="6" type="line"/>
    </contour>
    <contour>
      <point x="612" y="1093" type="line"/>
      <point x="978" y="1093" type="line"/>
      <point x="978" y="684" type="line"/>
      <point x="661" y="684" type="line" smooth="yes"/>
      <point x="470" y="684"/>
      <point x="419" y="587"/>
      <point x="419" y="526" type="curve" smooth="yes"/>
      <point x="419" y="459"/>
      <point x="497" y="391"/>
      <point x="667" y="391" type="curve" smooth="yes"/>
      <point x="769" y="391"/>
      <point x="887" y="412"/>
      <point x="1038" y="457" type="curve"/>
      <point x="1105" y="185" type="line"/>
      <point x="974" y="144"/>
      <point x="865" y="120"/>
      <point x="704" y="120" type="curve" smooth="yes"/>
      <point x="270" y="120"/>
      <point x="53" y="318"/>
      <point x="53" y="570" type="curve" smooth="yes"/>
      <point x="53" y="789"/>
      <point x="229" y="949"/>
      <point x="558" y="949" type="curve" smooth="yes"/>
      <point x="652" y="949" type="line"/>
      <point x="612" y="906" type="line"/>
    </contour>
    <contour>
      <point x="1258" y="1056" type="line"/>
      <point x="-30" y="1056" type="line"/>
      <point x="-30" y="1294" type="line"/>
      <point x="1258" y="1294" type="line"/>
    </contour>
    <contour>
      <point x="460" y="-730" type="move" name="btm"/>
    </contour>
    <contour>
      <point x="612" y="1294" type="move" name="top"/>
    </contour>
  </outline>
</glyph>
<glyph name="uuvowelsignlowdeva" format="1">
  <advance width="0"/>
  <outline>
    <contour>
      <point x="-135" y="-583" type="line"/>
      <point x="-214" y="-609"/>
      <point x="-288" y="-616"/>
      <point x="-391" y="-616" type="curve" smooth="yes"/>
      <point x="-624" y="-616"/>
      <point x="-852" y="-484"/>
      <point x="-852" y="-261" type="curve" smooth="yes"/>
      <point x="-852" y="-110"/>
      <point x="-682" y="41"/>
      <point x="-422" y="41" type="curve" smooth="yes"/>
      <point x="-136" y="41"/>
      <point x="55" y="-98"/>
      <point x="303" y="-364" type="curve"/>
      <point x="133" y="-541" type="line"/>
      <point x="-111" y="-284"/>
      <point x="-240" y="-226"/>
      <point x="-388" y="-226" type="curve" smooth="yes"/>
      <point x="-488" y="-226"/>
      <point x="-534" y="-271"/>
      <point x="-534" y="-324" type="curve" smooth="yes"/>
      <point x="-534" y="-371"/>
      <point x="-495" y="-402"/>
      <point x="-411" y="-402" type="curve" smooth="yes"/>
      <point x="-354" y="-402"/>
      <point x="-300" y="-397"/>
      <point x="-212" y="-367" type="curve"/>
    </contour>
    <contour>
      <point x="-452" y="0" type="move" name="_btm"/>
    </contour>
  </outline>
</glyph>
<glyph name="yaradeva" format="1">
  <advance width="1436"/>
  <outline>
    <contour>
      <point x="985" y="272" type="line"/>
      <point x="194" y="-167" type="line"/>
      <point x="17" y="85" type="line"/>
      <point x="817" y="526" type="line"/>
    </contour>
    <component base="yadeva"/>
    <contour>
      <point x="886" y="1294" type="move" name="top"/>
    </contour>
  </outline>
</glyph>
